<?xml version="1.0" standalone="no"?>
<!DOCTYPE svg PUBLIC "-//W3C//DTD SVG 20010904//EN"
 "http://www.w3.org/TR/2001/REC-SVG-20010904/DTD/svg10.dtd">
<svg version="1.0" xmlns="http://www.w3.org/2000/svg"
 width="260.000000pt" height="260.000000pt" viewBox="0 0 260.000000 260.000000"
 preserveAspectRatio="xMidYMid meet">
<metadata>
Created by potrace 1.14, written by Peter Selinger 2001-2017
</metadata>
<g transform="translate(0.000000,260.000000) scale(0.100000,-0.100000)"
fill="#000000" stroke="none">
<path d="M473 1609 c-47 -17 -36 -91 16 -104 44 -11 71 -33 64 -53 -14 -38
-52 -43 -83 -10 -23 25 -36 19 -21 -10 21 -39 101 -40 121 -2 19 36 2 68 -46
86 -56 21 -69 36 -54 63 11 22 54 29 65 11 3 -5 14 -14 25 -20 15 -8 17 -7 13
11 -3 11 -11 22 -17 25 -28 9 -63 11 -83 3z"/>
<path d="M622 1608 c-21 -8 -7 -11 51 -10 20 1 37 0 37 -2 0 -2 -22 -41 -50
-87 -27 -46 -50 -89 -50 -96 0 -7 22 -11 65 -11 36 0 65 5 65 9 0 9 -22 12
-77 11 l-31 -1 39 62 c42 66 63 106 63 122 1 11 -86 13 -112 3z"/>
<path d="M767 1602 c4 -9 19 -40 35 -69 18 -33 28 -66 28 -93 0 -25 4 -39 10
-35 6 3 10 23 10 45 0 23 12 60 30 95 34 65 34 65 17 65 -7 0 -19 -15 -25 -34
-22 -59 -36 -62 -62 -12 -22 44 -56 74 -43 38z"/>
<path d="M1275 1612 c-81 -14 -113 -107 -59 -171 33 -40 85 -50 129 -26 66 35
74 110 19 183 -5 8 -70 18 -89 14z m68 -32 c65 -52 30 -160 -53 -160 -29 0
-71 42 -74 75 -9 81 67 132 127 85z"/>
<path d="M1439 1590 c0 -17 0 -50 0 -75 0 -97 1 -115 11 -115 5 0 11 38 12 85
l3 86 55 -83 c30 -46 60 -83 65 -83 6 0 11 42 11 103 1 56 -2 102 -7 102 -11
0 -11 -4 -10 -100 l0 -74 -57 87 c-64 97 -82 111 -83 67z"/>
<path d="M949 1565 c-2 -142 -1 -167 10 -160 6 3 9 39 8 80 -1 41 -1 75 1 75
2 0 18 -33 37 -74 36 -80 53 -99 61 -70 3 11 18 46 34 79 l29 60 0 -72 c1 -65
13 -103 23 -70 9 31 1 191 -10 195 -7 2 -29 -34 -53 -85 l-41 -88 -36 87 c-41
98 -62 112 -63 43z"/>
<path d="M439 1356 c-1 -1 -3 -59 -4 -131 -1 -71 -3 -136 -4 -142 -2 -21 -42
-15 -48 7 -6 21 -6 22 -55 24 -51 3 -59 -2 -52 -38 12 -71 61 -105 146 -101
41 2 56 8 82 34 l31 31 0 157 0 157 -47 1 c-27 1 -49 1 -49 1z"/>
<path d="M693 1303 c-12 -30 -23 -58 -23 -63 0 -5 -5 -21 -11 -37 -31 -74 -78
-217 -74 -223 3 -4 25 -7 51 -7 43 0 47 2 60 32 12 31 15 32 76 34 63 2 64 2
78 -31 14 -30 19 -33 60 -34 25 0 48 1 52 3 4 2 -9 47 -28 101 -20 53 -49 138
-66 187 l-31 90 -60 0 -60 1 -24 -53z m111 -160 c7 -21 4 -23 -28 -23 -20 0
-36 4 -36 9 0 7 12 48 27 91 5 14 15 -7 37 -77z"/>
<path d="M1009 1356 c-4 -4 -4 -376 1 -377 16 -4 77 -5 88 -1 8 3 12 33 12
105 l0 100 70 -104 69 -103 51 -2 50 -1 1 74 c0 40 1 89 1 108 0 19 -1 72 -1
118 l-1 83 -50 0 -49 0 -3 -104 -3 -103 -64 98 c-35 54 -66 100 -67 102 -3 3
-103 10 -105 7z"/>
<path d="M1422 1351 c-14 -9 -13 -369 2 -374 6 -2 29 -3 51 -3 l40 1 2 188 c1
103 -1 187 -5 188 -53 5 -81 6 -90 0z"/>
<path d="M1691 1350 c-7 -4 -124 -321 -133 -359 -2 -11 9 -15 47 -15 47 -1 51
1 65 31 15 31 17 32 78 32 61 -1 64 -2 74 -30 5 -16 13 -30 16 -30 30 -6 94
-4 98 2 4 7 -29 108 -95 289 l-31 85 -56 0 c-30 0 -59 -2 -63 -5z m89 -212 c0
-14 -8 -18 -36 -18 -27 0 -35 4 -31 14 3 8 11 33 18 57 l13 43 18 -40 c10 -21
18 -47 18 -56z"/>
<path d="M1980 1165 l0 -191 43 1 c61 1 65 6 63 85 -2 38 1 67 5 64 4 -2 31
-37 59 -76 l50 -72 55 -2 c31 -1 58 2 60 6 3 5 -24 48 -60 96 -36 49 -65 92
-65 96 0 4 29 46 65 93 36 47 64 86 63 86 -2 1 -29 2 -60 3 l-58 1 -55 -77
c-31 -43 -57 -78 -58 -78 -2 0 -2 34 -2 75 1 41 -2 76 -5 76 -3 1 -26 2 -52 3
l-48 1 0 -190z"/>
</g>
</svg>
