<?xml version="1.0" encoding="utf-8"?>
<!-- Generator: Adobe Illustrator 23.0.3, SVG Export Plug-In . SVG Version: 6.00 Build 0)  -->
<svg version="1.1" id="Layer_1" xmlns="http://www.w3.org/2000/svg" xmlns:xlink="http://www.w3.org/1999/xlink" x="0px" y="0px"
	 viewBox="0 0 226 138" style="enable-background:new 0 0 226 138;" xml:space="preserve">
<style type="text/css">
	.st0{enable-background:new    ;}
	.st1{fill:#67D0FF;}
</style>
<g id="Group_178" transform="translate(-140 -64)">
	<g id="Group_3" transform="translate(17 -2.167)">
		<g id="Component_1_43" transform="translate(123 66.167)">
			<g class="st0">
				<path d="M22.5,33.5c-1.1-0.5-2-1.2-2.6-2.1c-0.6-0.9-1-1.9-1-3.1h2.4c0.1,1.1,0.6,2,1.4,2.9c0.9,0.8,2.1,1.2,3.7,1.2
					c1.5,0,2.7-0.4,3.6-1.2c0.9-0.8,1.3-1.8,1.3-3c0-1-0.2-1.7-0.7-2.3c-0.5-0.6-1.1-1-1.8-1.3c-0.7-0.3-1.7-0.6-3-0.9
					c-1.5-0.4-2.7-0.8-3.6-1.2c-0.9-0.4-1.6-1-2.2-1.8c-0.6-0.8-0.9-1.9-0.9-3.3c0-1.2,0.3-2.2,0.9-3.1c0.6-0.9,1.4-1.6,2.5-2.1
					c1.1-0.5,2.3-0.8,3.7-0.8c2.1,0,3.7,0.5,5,1.5c1.3,1,2,2.3,2.2,3.9h-2.4c-0.1-0.9-0.7-1.7-1.5-2.4c-0.9-0.7-2-1.1-3.5-1.1
					c-1.3,0-2.5,0.4-3.4,1.1s-1.3,1.7-1.3,2.9c0,0.9,0.2,1.7,0.7,2.3c0.5,0.6,1.1,1,1.8,1.3s1.7,0.6,3,1c1.5,0.4,2.6,0.8,3.5,1.2
					s1.7,1,2.3,1.8c0.6,0.8,0.9,1.9,0.9,3.3c0,1-0.3,2-0.8,3c-0.6,0.9-1.4,1.7-2.5,2.3c-1.1,0.6-2.4,0.9-3.9,0.9
					C24.9,34.2,23.6,34,22.5,33.5z"/>
				<path d="M39.3,32h11.4v2h-14v-1.8l11.3-18.6H36.9v-2h13.7v1.8L39.3,32z"/>
				<path d="M69.4,11.6l-7.2,13.7V34H60v-8.7l-7.2-13.7h2.5l5.8,11.6L67,11.6H69.4z"/>
				<path d="M94.6,11.9V34h-2.2V16.4L84.5,34h-1.6L75,16.4V34h-2.2V11.9h2.4l8.5,19.1l8.5-19.1H94.6z"/>
				<path d="M104.1,32.8c-1.7-1-3-2.3-4-4.1c-1-1.7-1.5-3.7-1.5-5.9s0.5-4.2,1.5-5.9c1-1.7,2.3-3.1,4-4.1c1.7-1,3.6-1.5,5.6-1.5
					c2.1,0,4,0.5,5.7,1.5s3,2.3,4,4.1c1,1.7,1.4,3.7,1.4,5.9s-0.5,4.2-1.4,5.9c-1,1.7-2.3,3.1-4,4.1c-1.7,1-3.6,1.5-5.7,1.5
					C107.6,34.2,105.8,33.7,104.1,32.8z M114.2,31.1c1.3-0.8,2.4-1.9,3.1-3.3c0.8-1.4,1.2-3.1,1.2-5c0-1.9-0.4-3.6-1.2-5
					c-0.8-1.4-1.8-2.5-3.1-3.3c-1.3-0.8-2.8-1.2-4.5-1.2s-3.2,0.4-4.5,1.2c-1.3,0.8-2.4,1.9-3.1,3.3c-0.8,1.4-1.2,3.1-1.2,5
					c0,1.9,0.4,3.6,1.2,5c0.8,1.4,1.8,2.5,3.1,3.3c1.3,0.8,2.8,1.2,4.5,1.2S112.9,31.9,114.2,31.1z"/>
				<path d="M141.7,34h-2.2l-12.4-18.8V34h-2.2V11.6h2.2l12.4,18.8V11.6h2.2V34z"/>
			</g>
			<g class="st0">
				<path d="M30.3,39.1v27.1c0,4.6-1.2,8.1-3.7,10.6c-2.5,2.4-5.9,3.7-10.3,3.7c-4.6,0-8.3-1.3-11.1-3.9C2.4,73.9,1,70.2,1,65.3
					h11.3c0,3.2,1.2,4.8,3.5,4.8c2.1,0,3.1-1.3,3.1-3.9V39.1H30.3z"/>
				<path d="M63,73.3H48.5L46.3,80H34.3l14.9-40.9h13.1L77.2,80h-12L63,73.3z M60.1,64.6l-4.4-13.2l-4.4,13.2H60.1z"/>
				<path d="M118.8,80h-11.4L92.3,57.1V80H80.9V39.1h11.4l15.1,23.1V39.1h11.4V80z"/>
				<path d="M136.6,39.1V80h-11.4V39.1H136.6z"/>
				<path d="M169,73.3h-14.5l-2.2,6.7h-11.9l14.9-40.9h13.1L183.2,80h-12L169,73.3z M166.2,64.6l-4.4-13.2l-4.3,13.2H166.2z"/>
				<path d="M211.1,80l-12.8-17.9V80h-11.4V39.1h11.4v17.6L211,39.1h13.1l-15,19.8L224.9,80H211.1z"/>
			</g>
		</g>
	</g>
	<g class="st0">
		<path d="M222.3,181l-5.3,14h-1.6l-5.3-14h1.5l4.6,12.5l4.6-12.5H222.3z"/>
		<path d="M234.2,190.1h-9.1c0,0.8,0.2,1.5,0.6,2.1s0.8,1,1.4,1.3c0.6,0.3,1.2,0.5,1.9,0.5c0.9,0,1.7-0.2,2.3-0.7
			c0.6-0.4,1-1,1.2-1.8h1.5c-0.3,1.1-0.8,1.9-1.7,2.6c-0.9,0.7-2,1-3.3,1c-1,0-1.9-0.2-2.8-0.7c-0.8-0.5-1.5-1.1-1.9-2
			s-0.7-1.8-0.7-3c0-1.1,0.2-2.1,0.7-3c0.5-0.9,1.1-1.5,1.9-2c0.8-0.5,1.7-0.7,2.8-0.7s2,0.2,2.7,0.7c0.8,0.5,1.4,1.1,1.8,1.8
			c0.4,0.8,0.6,1.6,0.6,2.6C234.2,189.5,234.2,189.8,234.2,190.1z M232.3,186.9c-0.3-0.6-0.8-1-1.4-1.3c-0.6-0.3-1.2-0.4-1.9-0.4
			c-1,0-1.9,0.3-2.7,1c-0.7,0.7-1.1,1.6-1.2,2.8h7.7C232.8,188.1,232.7,187.4,232.3,186.9z"/>
		<path d="M245.1,185.1c0.8,0.8,1.2,2,1.2,3.5v6.4H245v-6.2c0-1.2-0.3-2.1-0.9-2.7c-0.6-0.6-1.4-0.9-2.4-0.9c-1.1,0-1.9,0.3-2.5,1
			c-0.6,0.7-0.9,1.6-0.9,2.9v6h-1.4v-10.9h1.4v1.9c0.3-0.7,0.8-1.2,1.5-1.5s1.4-0.5,2.2-0.5C243.2,183.9,244.3,184.3,245.1,185.1z"
			/>
		<path d="M251.3,185.3v6.8c0,0.7,0.1,1.1,0.4,1.4c0.3,0.3,0.7,0.4,1.3,0.4h1.3v1.2h-1.5c-1,0-1.7-0.2-2.2-0.7s-0.7-1.2-0.7-2.3
			v-6.8h-1.5v-1.2h1.5v-2.7h1.4v2.7h3v1.2H251.3z"/>
		<path d="M266,184.1V195h-1.4v-1.9c-0.3,0.7-0.8,1.2-1.5,1.6c-0.7,0.4-1.4,0.5-2.2,0.5c-1.3,0-2.4-0.4-3.2-1.2
			c-0.8-0.8-1.2-2-1.2-3.5v-6.4h1.4v6.2c0,1.2,0.3,2.1,0.9,2.7c0.6,0.6,1.4,0.9,2.4,0.9c1.1,0,1.9-0.3,2.5-1s0.9-1.6,0.9-2.9v-5.9
			H266z"/>
		<path d="M272,184.4c0.6-0.4,1.4-0.6,2.3-0.6v1.5H274c-1,0-1.8,0.3-2.4,0.8s-0.9,1.5-0.9,2.7v6.1h-1.4v-10.9h1.4v1.9
			C270.9,185.3,271.4,184.8,272,184.4z"/>
		<path d="M286.3,190.1h-9.1c0,0.8,0.2,1.5,0.6,2.1c0.4,0.6,0.8,1,1.4,1.3c0.6,0.3,1.2,0.5,1.9,0.5c0.9,0,1.7-0.2,2.3-0.7
			c0.6-0.4,1-1,1.2-1.8h1.5c-0.3,1.1-0.8,1.9-1.7,2.6c-0.9,0.7-2,1-3.3,1c-1,0-1.9-0.2-2.8-0.7c-0.8-0.5-1.5-1.1-1.9-2
			s-0.7-1.8-0.7-3c0-1.1,0.2-2.1,0.7-3c0.5-0.9,1.1-1.5,1.9-2c0.8-0.5,1.7-0.7,2.8-0.7s2,0.2,2.7,0.7c0.8,0.5,1.4,1.1,1.8,1.8
			c0.4,0.8,0.6,1.6,0.6,2.6C286.4,189.5,286.3,189.8,286.3,190.1z M284.4,186.9c-0.3-0.6-0.8-1-1.4-1.3c-0.6-0.3-1.2-0.4-1.9-0.4
			c-1,0-1.9,0.3-2.7,1c-0.7,0.7-1.1,1.6-1.2,2.8h7.7C285,188.1,284.8,187.4,284.4,186.9z"/>
		<path d="M294.7,184.3c0.6-1.1,1.4-1.9,2.5-2.5c1-0.6,2.2-0.9,3.5-0.9c1.6,0,2.9,0.4,4,1.1c1.1,0.7,1.9,1.8,2.4,3.1h-1.6
			c-0.4-0.9-1-1.7-1.8-2.2c-0.8-0.5-1.8-0.8-3-0.8c-1,0-2,0.2-2.8,0.7c-0.8,0.5-1.5,1.2-1.9,2.1c-0.5,0.9-0.7,1.9-0.7,3.1
			s0.2,2.2,0.7,3.1s1.1,1.6,1.9,2.1c0.8,0.5,1.7,0.7,2.8,0.7c1.2,0,2.2-0.3,3-0.8c0.8-0.5,1.4-1.3,1.8-2.2h1.6
			c-0.5,1.3-1.3,2.4-2.4,3.1c-1.1,0.7-2.5,1.1-4,1.1c-1.3,0-2.4-0.3-3.5-0.9s-1.9-1.5-2.5-2.5c-0.6-1.1-0.9-2.3-0.9-3.7
			S294.1,185.4,294.7,184.3z"/>
		<path d="M309.8,186.6c0.4-0.8,1.1-1.5,1.9-2c0.8-0.5,1.7-0.7,2.7-0.7c1,0,1.9,0.2,2.7,0.7c0.8,0.5,1.3,1.1,1.6,1.8v-2.4h1.4V195
			h-1.4v-2.4c-0.3,0.7-0.9,1.4-1.7,1.8c-0.8,0.5-1.6,0.7-2.7,0.7c-1,0-1.9-0.2-2.7-0.7c-0.8-0.5-1.4-1.1-1.9-2
			c-0.4-0.9-0.7-1.8-0.7-3C309.2,188.4,309.4,187.4,309.8,186.6z M318.2,187.2c-0.4-0.7-0.9-1.2-1.5-1.5c-0.6-0.4-1.3-0.5-2.1-0.5
			c-0.8,0-1.5,0.2-2.1,0.5s-1.1,0.8-1.4,1.5c-0.4,0.7-0.5,1.4-0.5,2.3c0,0.9,0.2,1.7,0.5,2.4c0.4,0.7,0.8,1.2,1.4,1.5
			s1.3,0.5,2.1,0.5c0.7,0,1.4-0.2,2.1-0.5c0.6-0.4,1.1-0.9,1.5-1.5c0.4-0.7,0.5-1.4,0.5-2.3S318.5,187.9,318.2,187.2z"/>
		<path d="M326.3,184.7c0.8-0.5,1.6-0.7,2.7-0.7c1,0,1.9,0.2,2.7,0.7c0.8,0.5,1.4,1.1,1.9,2s0.7,1.8,0.7,2.9c0,1.1-0.2,2.1-0.7,3
			c-0.4,0.9-1.1,1.5-1.9,2c-0.8,0.5-1.7,0.7-2.7,0.7c-1,0-1.9-0.2-2.7-0.7c-0.8-0.5-1.3-1.1-1.7-1.8v7.6h-1.4v-16.1h1.4v2.4
			C325,185.7,325.6,185.1,326.3,184.7z M332.3,187.2c-0.4-0.7-0.8-1.2-1.4-1.5c-0.6-0.3-1.3-0.5-2.1-0.5c-0.7,0-1.4,0.2-2,0.5
			c-0.6,0.4-1.1,0.9-1.5,1.5c-0.4,0.7-0.5,1.4-0.5,2.3s0.2,1.7,0.5,2.3c0.4,0.7,0.9,1.2,1.5,1.5c0.6,0.4,1.3,0.5,2,0.5
			c0.8,0,1.5-0.2,2.1-0.5c0.6-0.4,1.1-0.9,1.4-1.5c0.4-0.7,0.5-1.5,0.5-2.4C332.8,188.6,332.6,187.8,332.3,187.2z"/>
		<path d="M336.8,181.7c-0.2-0.2-0.3-0.4-0.3-0.7c0-0.3,0.1-0.5,0.3-0.7c0.2-0.2,0.4-0.3,0.7-0.3s0.5,0.1,0.7,0.3s0.3,0.4,0.3,0.7
			c0,0.3-0.1,0.5-0.3,0.7s-0.4,0.3-0.7,0.3S337,181.9,336.8,181.7z M338.2,184.1V195h-1.4v-10.9H338.2z"/>
		<path d="M343.2,185.3v6.8c0,0.7,0.1,1.1,0.4,1.4c0.3,0.3,0.7,0.4,1.3,0.4h1.3v1.2h-1.5c-1,0-1.7-0.2-2.2-0.7
			c-0.5-0.5-0.7-1.2-0.7-2.3v-6.8h-1.5v-1.2h1.5v-2.7h1.4v2.7h3v1.2H343.2z"/>
		<path d="M348.5,186.6c0.4-0.8,1.1-1.5,1.9-2c0.8-0.5,1.7-0.7,2.7-0.7c1,0,1.9,0.2,2.7,0.7c0.8,0.5,1.3,1.1,1.6,1.8v-2.4h1.4V195
			h-1.4v-2.4c-0.3,0.7-0.9,1.4-1.7,1.8c-0.8,0.5-1.6,0.7-2.7,0.7c-1,0-1.9-0.2-2.7-0.7c-0.8-0.5-1.4-1.1-1.9-2
			c-0.4-0.9-0.7-1.8-0.7-3C347.9,188.4,348.1,187.4,348.5,186.6z M356.9,187.2c-0.4-0.7-0.9-1.2-1.5-1.5c-0.6-0.4-1.3-0.5-2.1-0.5
			c-0.8,0-1.5,0.2-2.1,0.5s-1.1,0.8-1.4,1.5c-0.4,0.7-0.5,1.4-0.5,2.3c0,0.9,0.2,1.7,0.5,2.4c0.4,0.7,0.8,1.2,1.4,1.5
			s1.3,0.5,2.1,0.5c0.7,0,1.4-0.2,2.1-0.5c0.6-0.4,1.1-0.9,1.5-1.5c0.4-0.7,0.5-1.4,0.5-2.3S357.2,187.9,356.9,187.2z"/>
		<path d="M363.4,180.2V195H362v-14.8H363.4z"/>
	</g>
	<g id="Line_2">
		<rect x="140.5" y="173" class="st1" width="224" height="1"/>
	</g>
</g>
</svg>
