<?xml version="1.0" encoding="utf-8"?>
<!-- Generator: Adobe Illustrator 23.0.3, SVG Export Plug-In . SVG Version: 6.00 Build 0)  -->
<svg version="1.1" id="sj-logo-big" xmlns="http://www.w3.org/2000/svg" xmlns:xlink="http://www.w3.org/1999/xlink" x="0px"
	 y="0px" viewBox="0 0 538 240" style="enable-background:new 0 0 538 240;" xml:space="preserve">
<style type="text/css">
	.st0{enable-background:new    ;}
</style>
<g class="st0">
	<path d="M55.3,80.7c-2.7-1.2-4.9-3-6.4-5.2c-1.6-2.2-2.4-4.7-2.5-7.5h5.8c0.3,2.7,1.4,5,3.5,7c2.1,2,5.1,3,9.1,3
		c3.7,0,6.6-0.9,8.8-2.8c2.2-1.9,3.2-4.3,3.2-7.2c0-2.3-0.6-4.2-1.8-5.7c-1.2-1.4-2.7-2.5-4.4-3.2c-1.8-0.7-4.2-1.5-7.3-2.3
		c-3.6-1-6.5-1.9-8.7-2.9c-2.1-0.9-4-2.4-5.5-4.4c-1.5-2-2.3-4.7-2.3-8c0-2.8,0.7-5.3,2.2-7.5c1.5-2.2,3.5-3.9,6.2-5.2
		c2.7-1.2,5.7-1.9,9.1-1.9c5,0,9.1,1.2,12.2,3.7c3.1,2.5,4.9,5.7,5.3,9.6h-5.9c-0.4-2.2-1.6-4.2-3.7-6c-2.1-1.7-4.9-2.6-8.4-2.6
		c-3.3,0-6,0.9-8.2,2.6s-3.3,4.1-3.3,7.1c0,2.3,0.6,4.1,1.8,5.5c1.2,1.4,2.7,2.5,4.5,3.2c1.8,0.7,4.2,1.5,7.3,2.3
		c3.5,1,6.4,2,8.6,2.9c2.2,1,4,2.4,5.5,4.4c1.5,2,2.3,4.6,2.3,8c0,2.5-0.7,5-2,7.3c-1.4,2.3-3.4,4.1-6,5.5c-2.7,1.4-5.8,2.1-9.5,2.1
		C61.2,82.5,58,81.9,55.3,80.7z"/>
	<path d="M96.4,77.2h27.8V82H90v-4.4l27.5-45.3h-27v-4.8h33.4v4.4L96.4,77.2z"/>
	<path d="M169.8,27.5l-17.5,33.3V82h-5.5V60.8l-17.6-33.3h6.2l14.2,28.3l14.1-28.3H169.8z"/>
	<path d="M231.1,28.2V82h-5.5V39l-19.2,43h-4l-19.2-42.8V82h-5.5V28.2h5.8l20.8,46.6l20.8-46.6H231.1z"/>
	<path d="M254.2,79c-4.1-2.4-7.3-5.7-9.7-9.9c-2.4-4.2-3.5-9-3.5-14.4c0-5.4,1.2-10.2,3.5-14.4c2.4-4.2,5.6-7.5,9.7-9.9
		c4.1-2.4,8.7-3.5,13.7-3.5c5.1,0,9.7,1.2,13.8,3.5s7.3,5.7,9.7,9.9c2.3,4.2,3.5,9,3.5,14.4c0,5.4-1.2,10.2-3.5,14.4
		c-2.3,4.2-5.6,7.5-9.7,9.9c-4.1,2.4-8.7,3.5-13.8,3.5C262.9,82.5,258.3,81.4,254.2,79z M278.9,75c3.2-1.9,5.8-4.6,7.6-8.1
		c1.9-3.5,2.8-7.6,2.8-12.2c0-4.6-0.9-8.7-2.8-12.2c-1.9-3.5-4.4-6.2-7.6-8c-3.2-1.9-6.9-2.8-10.9-2.8c-4.1,0-7.7,0.9-10.9,2.8
		c-3.2,1.9-5.8,4.6-7.6,8c-1.9,3.5-2.8,7.5-2.8,12.2c0,4.6,0.9,8.7,2.8,12.2s4.4,6.2,7.6,8.1c3.2,1.9,6.9,2.8,10.9,2.8
		C272,77.8,275.7,76.9,278.9,75z"/>
	<path d="M346,82h-5.5l-30.2-45.9V82h-5.5V27.5h5.5l30.2,45.8V27.5h5.5V82z"/>
</g>
<g class="st0">
	<path d="M72.2,94.7v64.4c0,10.9-3,19.3-8.9,25.1c-5.9,5.8-14.1,8.7-24.5,8.7c-11,0-19.9-3.1-26.4-9.2c-6.6-6.2-9.9-15-9.9-26.6
		h26.8c0.1,7.6,2.9,11.5,8.4,11.5c5,0,7.5-3.1,7.5-9.4V94.7H72.2z"/>
	<path d="M149.9,176.1h-34.5l-5.2,15.9H81.7l35.5-97.3h31.2l35.3,97.3h-28.6L149.9,176.1z M143.1,155.4L132.6,124l-10.4,31.5H143.1z
		"/>
	<path d="M282.6,192h-27l-36-54.4V192h-27V94.7h27l36,55.1V94.7h27V192z"/>
	<path d="M325.1,94.7V192h-27V94.7H325.1z"/>
	<path d="M402.1,176.1h-34.5l-5.2,15.9H334l35.5-97.3h31.2l35.3,97.3h-28.6L402.1,176.1z M395.4,155.4L384.9,124l-10.4,31.5H395.4z"
		/>
	<path d="M502.3,192l-30.5-42.6V192h-27V94.7h27v42l30.2-42h31.2l-35.7,47.2L535,192H502.3z"/>
</g>
</svg>
